<?xml version="1.0" standalone="no"?><!DOCTYPE svg PUBLIC "-//W3C//DTD SVG 1.1//EN" "http://www.w3.org/Graphics/SVG/1.1/DTD/svg11.dtd"><svg class="icon" width="200px" height="200.00px" viewBox="0 0 1024 1024" version="1.1" xmlns="http://www.w3.org/2000/svg"><path fill="#eeb174" d="M837.209268 591.462796c-5.294586-5.128811 20.244067-36.69269 28.252461-42.38125-14.896268-44.50768-78.255295-86.901209-105.950054-123.607202C705.302029 353.623923 640.700709 292.466028 586.460364 220.638119c-18.74083-24.818245-46.208415-43.742247-63.570851-70.632687-8.187473 0.800225-9.959839 0.696872-14.126742 3.53143-48.829102-1.766226-50.202379-57.006342-84.760452-74.16514-22.525016 113.031333-60.921511 189.060937-144.797827 240.153592-34.991955 21.317515-111.157659 30.136368-137.734968 56.505945-9.80532 15.220656-7.605212 104.553241-7.063883 130.671085 16.072047 15.110139 25.539676 34.875299 38.847773 52.974515 34.985816 47.573505 73.788563 92.713588 109.481484 141.266397 59.917648 81.508385 139.321092 155.282622 190.709483 243.685022 130.657782-44.727691 261.35752-89.473801 392.014278-134.202515 5.884011-35.31225 11.775184-70.635757 17.658172-105.950054-6.194072-18.581194-19.799952-25.966395-28.252461-42.379203 11.295254-5.636371 23.369244-12.509918 31.784914-21.189601 3.808746-3.231601 0.324388 0.293689 3.532453-3.53143C871.987353 625.929796 848.996732 609.449449 837.209268 591.462796zM844.272127 633.841999c-9.249665 25.242917-46.240137 38.258349-67.101257 52.974515-47.76077 33.69338-96.562243 67.871807-151.86171 95.355765-25.8876 12.867052-58.800197 15.181771-81.227999 31.784914l-7.062859 0 0-3.53143c29.005614-7.928576 54.182017-28.109198 77.69657-42.379203 17.730826-10.761088 35.482119-13.846356 52.975539-24.721031 43.74941-27.195386 80.818677-63.466474 116.545366-98.887194 10.295484-10.205433 23.335475-16.047488 31.784914-28.252461l10.595312 0C831.476707 623.629403 836.760037 629.045763 844.272127 633.841999zM565.269739 831.614341c-6.096858-2.278903-3.455705-0.691755-7.062859-3.53143C564.301691 830.362838 561.662585 828.776713 565.269739 831.614341zM526.422989 181.789323c13.201673 25.263383 36.743856 41.724287 52.975539 63.569828 44.158732 59.434647 97.527221 111.131053 141.266397 169.519882 27.756157 37.054941 68.908416 102.014418 105.949031 127.139655-8.052396 77.951373-149.128459 172.240853-208.367655 208.368678-25.438369 15.515369-62.693878 19.503193-84.759429 38.847773l-7.062859 0 0-3.53143c51.057863-16.48444 167.491689-109.070114 194.240913-151.860686 18.841114-30.139437 30.642904-84.384899 52.975539-109.481484-2.89698-38.655392-35.024701-53.650921-52.975539-77.69657-49.633421-66.477041-102.411461-127.634936-151.86171-194.241936-15.640212-21.065781-52.508911-46.77328-52.975539-70.632687L526.422989 181.790346zM219.167117 368.967376c27.073612-11.771091 54.154387-23.545252 81.227999-35.316344 89.064478-54.960753 94.085842-100.434433 134.203538-201.304795 26.859741 17.86795 44.270273 51.879578 63.569828 77.69657 46.460148 62.148455 105.664551 117.709889 151.86171 180.114171 29.522384 39.879266 60.121286 93.154633 98.886171 123.608226C732.066603 640.939651 595.506391 727.790718 494.637052 775.108397c-57.365522-86.421278-139.594315-157.486824-201.304795-240.153592-25.880437-34.667567-56.079226-65.042365-81.227999-98.886171-13.437034-18.081821-24.811082-39.241746-42.380226-52.974515C183.213253 372.741329 200.260511 375.089817 219.167117 368.967376zM473.447451 863.401302l0 42.379203c-30.715559-20.323884-52.216245-62.231343-74.16514-91.823312-47.12632-63.530942-100.562347-122.80493-148.33028-187.17703-24.984021-33.668821-81.863473-80.677461-95.354741-120.076796-12.216229-18.937305-4.111644-78.923514-3.53143-105.949031 31.743982 20.847817 54.94745 61.521169 77.69657 91.822288 49.298799 65.663512 108.98518 124.190487 158.924569 190.709483 24.886807 33.151028 74.079182 65.084321 88.291882 105.950054C479.792972 794.263665 480.316905 853.091492 473.447451 863.401302zM840.740698 789.235139c-11.712763 22.544459-66.485227 25.914206-91.823312 35.316344-53.905724 20.008706-112.167662 40.024575-165.987429 60.039421-27.895327 10.371208-62.318324 11.95017-84.760452 28.252461l-7.063883 0c4.042059-12.475126 2.938935-33.515325 10.595312-42.379203 23.204491-18.568914 84.36341-24.64326 116.545366-35.31839 47.950082-15.901155 100.455923-33.643238 144.79885-56.505945 25.586748-13.19144 57.279564-38.267559 88.290859-42.379203C850.814124 753.742786 848.685647 777.670755 840.740698 789.235139zM646.498762 806.89331c-22.790052 8.456602-51.588959 8.473999-70.632687 21.189601l-7.063883 0 0-3.53143c70.950935-16.96437 226.720651-95.27697 261.344217-144.797827 13.350053 4.960988 14.419408 13.774725 24.721031 21.189601C826.113559 738.663346 699.50807 787.224342 646.498762 806.89331z" /></svg>