<?xml version="1.0" standalone="no"?><!DOCTYPE svg PUBLIC "-//W3C//DTD SVG 1.1//EN" "http://www.w3.org/Graphics/SVG/1.1/DTD/svg11.dtd"><svg class="icon" width="200px" height="200.00px" viewBox="0 0 1024 1024" version="1.1" xmlns="http://www.w3.org/2000/svg"><path fill="#eeb174" d="M825.71264 666.79296 825.71264 198.12352c0-32.04096-26.07616-58.09664-58.17344-58.09664l-506.5728 0c-32.05632 0-58.1376 26.0608-58.1376 58.09664l0 569.01632c-0.03072 0.83968-0.22528 1.60256-0.22528 2.45248 0 0.39936 0.2048 0.73216 0.22528 1.1264l0 79.52896c0 32.04096 26.07616 58.09664 58.1376 58.09664l506.5728 0c32.09728 0 58.17344-26.0608 58.17344-58.09664l0-174.96064c0.01024-0.04096 0.03072-0.07168 0.03584-0.11264C826.41408 672.31232 826.28608 669.4912 825.71264 666.79296zM786.95424 198.12352l0 471.12192c-8.73472 29.37344-36.88448 30.5664-40.76544 30.5664-0.03584 0-0.03584 0-0.0768 0l-444.61568 4.92544L301.49632 178.78528l466.03776 0C778.24512 178.78528 786.95424 187.45344 786.95424 198.12352zM260.96128 178.78528l1.77664 0 0 527.6416c-6.81472 1.16736-14.03904 3.01568-21.15584 5.9648L241.58208 198.12352C241.58208 187.45344 250.2912 178.78528 260.96128 178.78528zM767.53408 869.58592l-506.5728 0c-10.6752 0-19.3792-8.66816-19.3792-19.34336l0-81.82272c0.34816-8.31488 3.39968-12.59008 5.86752-14.88384 11.05408-10.18368 35.0464-10.6752 44.35968-10.03008l454.11328-4.9408c10.66496-0.21504 26.24-3.11296 41.02656-11.2128l0 23.1168c-1.5104 2.05312-2.6624 4.43392-3.29216 7.09632-7.56736 32.47616-37.77536 33.4592-41.82528 33.4592l-0.03584 0-430.19264 4.9408c-10.71104 0.13312-19.26656 8.89344-19.15392 19.60448 0.11264 10.61888 8.7808 19.15392 19.3792 19.15392 0.0768 0 0.1536 0 0.22528 0l429.55264-4.9408c11.74528-0.03584 29.35296-3.39968 45.34272-13.53728l0 33.9968C786.95424 860.92288 778.24512 869.58592 767.53408 869.58592zM456.15104 560.47616c2.99008 1.7408 6.35904 2.6112 9.728 2.6112 3.33312 0 6.62528-0.84992 9.61536-2.55488l204.0832-116.66944c6.05696-3.44576 9.76384-9.87648 9.76384-16.82432s-3.70688-13.37856-9.76384-16.82432L475.4944 293.56032c-6.016-3.4048-13.39904-3.4048-19.34336 0.05632-5.98016 3.4816-9.6512 9.86112-9.6512 16.768l0 233.32352C446.49984 550.61504 450.17088 557.00992 456.15104 560.47616zM485.25824 343.78752l145.64352 83.2512L485.25824 510.30528 485.25824 343.78752z" /></svg>