<?xml version="1.0" standalone="no"?><!DOCTYPE svg PUBLIC "-//W3C//DTD SVG 1.1//EN" "http://www.w3.org/Graphics/SVG/1.1/DTD/svg11.dtd"><svg class="icon" width="200px" height="200.00px" viewBox="0 0 1024 1024" version="1.1" xmlns="http://www.w3.org/2000/svg"><path fill="#eeb174" d="M491.52 389.12m-81.92 0a4 4 0 1 0 163.84 0 4 4 0 1 0-163.84 0ZM778.4448 102.4l-573.8496 0c-45.1584 0-81.7152 36.67968-81.7152 81.92l0 655.36c0 45.13792 36.57728 81.92 81.7152 81.92L860.16 921.6l0-40.96-51.2 0-604.11904 0c-22.65088 0-41.00096-18.2272-41.00096-40.96l0-40.96 696.32 0 0-40.96L860.16 184.32C860.16 139.18208 823.58272 102.4 778.4448 102.4zM573.5424 634.88l-164.02432 0c-11.264 0-20.3776-9.09312-20.3776-20.48 0-11.30496 9.33888-20.48 20.3776-20.48l164.02432 0c11.264 0 20.3776 9.09312 20.3776 20.48C593.92 625.70496 584.58112 634.88 573.5424 634.88zM491.52 512c-67.87072 0-122.88-55.00928-122.88-122.88s55.00928-122.88 122.88-122.88 122.88 55.00928 122.88 122.88S559.39072 512 491.52 512z" /></svg>