<?xml version="1.0" standalone="no"?><!DOCTYPE svg PUBLIC "-//W3C//DTD SVG 1.1//EN" "http://www.w3.org/Graphics/SVG/1.1/DTD/svg11.dtd"><svg class="icon" width="200px" height="200.00px" viewBox="0 0 1024 1024" version="1.1" xmlns="http://www.w3.org/2000/svg"><path fill="#eeb174" d="M121.78 213.535v564.949s77.694-55.095 187.914-55.095c110.19 0 187.853 55.095 187.853 55.095V220.655s-77.662-63.964-187.853-63.964c-110.22-0.001-187.914 56.844-187.914 56.844zM526.451 213.535v564.949s77.665-55.095 187.854-55.095c110.19 0 187.883 55.095 187.883 55.095V220.655s-77.692-63.964-187.883-63.964c-110.189-0.001-187.854 56.844-187.854 56.844zM64 270.379h28.906v540.088h346.832v28.421h144.525v-28.421h346.833V270.379H960v568.509H613.168l1.811 28.422H410.833v-28.422H64V270.379z" /></svg>