<?xml version="1.0" standalone="no"?><!DOCTYPE svg PUBLIC "-//W3C//DTD SVG 1.1//EN" "http://www.w3.org/Graphics/SVG/1.1/DTD/svg11.dtd"><svg class="icon" width="200px" height="200.00px" viewBox="0 0 1024 1024" version="1.1" xmlns="http://www.w3.org/2000/svg"><path fill="#eeb174" d="M819.15904 329.89184l-51.0976 0 0-14.4896-17.36704-6.81984c-3.4816-1.36192-86.10816-33.47456-158.40256-33.47456-33.8432 0-60.91776 6.97344-80.896 20.7872-19.98848-13.81376-47.0528-20.7872-80.896-20.7872-72.28416 0-154.92096 32.1024-158.40256 33.47456l-17.3568 6.81984 0 14.4896-49.88928 0c-11.32544 0-20.52096 9.18528-20.52096 20.51072l0 377.94816c0 11.33568 9.18528 20.52096 20.52096 20.52096l614.31808 0c11.32544 0 20.52096-9.17504 20.52096-20.52096L839.69024 350.4128C839.68 339.07712 830.49472 329.89184 819.15904 329.89184zM740.70016 334.05952l0 299.95008c-42.37312-14.49984-154.91072-47.38048-215.63392-11.93984L525.06624 319.95904c17.12128-12.78976 41.216-17.47968 67.21536-17.47968C660.23424 302.47936 740.70016 334.05952 740.70016 334.05952zM709.71392 652.6976 529.34656 652.6976C564.54144 619.3152 651.68384 635.36128 709.71392 652.6976zM430.4896 302.47936c25.98912 0 50.10432 4.68992 67.21536 17.47968l0 302.10048c-60.73344-35.42016-173.25056-2.56-215.63392 11.93984L282.07104 334.05952C282.08128 334.05952 362.5472 302.46912 430.4896 302.47936zM493.43488 652.6976 313.02656 652.6976C371.03616 635.3408 458.21952 619.264 493.43488 652.6976zM798.63808 707.84 225.36192 707.84 225.36192 370.93376l29.36832 0L254.73024 652.6976l0 27.36128 27.35104 0L511.3856 680.05888l229.31456 0 27.36128 0L768.06144 652.6976 768.06144 370.93376l30.57664 0L798.63808 707.84z" /></svg>