<?xml version="1.0" standalone="no"?><!DOCTYPE svg PUBLIC "-//W3C//DTD SVG 1.1//EN" "http://www.w3.org/Graphics/SVG/1.1/DTD/svg11.dtd"><svg class="icon" width="200px" height="200.00px" viewBox="0 0 1024 1024" version="1.1" xmlns="http://www.w3.org/2000/svg"><path fill="#eeb174" d="M847.525173 811.606252c15.488313 0 28.021694-12.53338 28.021694-28.021693V126.574752c0-35.109028-28.541827-63.650855-63.650855-63.650855H248.612667c-35.109028 0-63.650855 28.541827-63.650855 63.650855v731.031596c0 56.262499 45.782008 102.016862 102.044507 102.016862H843.449086c15.488313 0 28.021694-12.53338 28.021693-28.021693s-12.53338-28.021694-28.021693-28.021694h-17.705025V811.606252h21.781112zM248.612667 118.967284h563.283345c4.186667 0 7.607468 3.420801 7.607468 7.607468v628.987089H287.006319c-16.53882 0-32.169453 3.960388-46.00112 10.976051V126.574752c0-4.186667 3.420801-7.607468 7.607468-7.607468z m521.085959 784.612539H287.006319c-25.367783 0-46.00112-20.633337-46.00112-45.973475 0-25.367783 20.633337-46.00112 46.00112-46.00112H769.698626v91.974595z"  /></svg>