<?xml version="1.0" standalone="no"?><!DOCTYPE svg PUBLIC "-//W3C//DTD SVG 1.1//EN" "http://www.w3.org/Graphics/SVG/1.1/DTD/svg11.dtd"><svg class="icon" width="200px" height="200.00px" viewBox="0 0 1024 1024" version="1.1" xmlns="http://www.w3.org/2000/svg"><path fill="#eeb174" d="M801.034882 833.072553 351.491353 833.072553c-53.243645 0-96.710622-42.659589-98.016361-95.595218 0.064468-0.809435 0.106424-1.62501 0.106424-2.451842l0-5.188162c2.706645-51.66059 45.586245-92.858898 97.909937-92.858898l320.606948 0c1.642406 0 3.254114-0.132006 4.826935-0.38067l33.19503 0c66.991764 0 121.493052-51.879578 121.493052-115.64895L831.613318 243.739257c0-63.769372-54.501288-115.649973-121.493052-115.649973L313.676096 128.089283c-66.99074 0-121.493052 51.880601-121.493052 115.649973l0 484.941738c-0.082888 2.105964-0.137123 4.219091-0.137123 6.344498 0 87.918375 71.527057 159.444409 159.445432 159.444409l449.543529 0c16.954137 0 30.699186-13.745049 30.699186-30.699186S817.989019 833.072553 801.034882 833.072553zM313.676096 189.487655l396.444171 0c33.136701 0 60.09468 24.337291 60.09468 54.251601l0 277.209556c0 29.91431-26.957978 54.250578-60.09468 54.250578L510.294149 575.199391c-1.642406 0-3.254114 0.132006-4.826935 0.38067L351.491353 575.580061c-36.877909 0-70.869071 12.589736-97.909937 33.69031L253.581416 243.739257C253.581416 213.824947 280.539394 189.487655 313.676096 189.487655zM798.200324 735.025493c0 16.956184-13.746072 30.702256-30.702256 30.702256L350.009605 765.727749c-16.956184 0-30.702256-13.746072-30.702256-30.702256l0 0c0-16.956184 13.746072-30.702256 30.702256-30.702256l417.48744 0C784.454252 704.323237 798.200324 718.069309 798.200324 735.025493L798.200324 735.025493z" /></svg>