<?xml version="1.0" standalone="no"?><!DOCTYPE svg PUBLIC "-//W3C//DTD SVG 1.1//EN" "http://www.w3.org/Graphics/SVG/1.1/DTD/svg11.dtd"><svg class="icon" width="200px" height="200.00px" viewBox="0 0 1024 1024" version="1.1" xmlns="http://www.w3.org/2000/svg"><path fill="#eeb174" d="M660.138 64.125c-61.091 0-116.824 37.665-147.455 99.068-30.638-61.403-86.324-99.068-147.459-99.068H65.529v716.55l1.539 26.713H366.47c121.178 0 122.985 139.294 123.007 145.268l0.022 5.529 46.376 0.026v-5.529c0.022-5.947 1.855-145.293 124.26-145.293h299.74V64.125H660.138z m-548.212 54.203h253.295c69.686 0 124.256 63.751 124.256 145.137v547.049c-30.076-38.032-71.382-57.282-123.007-57.282H111.926V118.328z m548.212 0h253.318v634.906H660.138c-52.204 0-93.935 19.408-124.26 57.698V263.465c0.001-81.386 54.593-145.137 124.26-145.137z"  /><path fill="#eeb174" d="M575.469 930.194l-2.056 5.059 41.932 23.218 2.076-5.063c14.715-36.362 46.468-59.813 80.852-59.813h261.603v-54.232h-261.6c-52.227 0.004-100.435 35.637-122.807 90.831zM327.888 839.367H65.529v54.232h262.36c34.385 0 66.137 23.451 80.874 59.864l2.032 5.008 41.958-23.218-2.008-5.059c-22.377-55.194-70.608-90.827-122.857-90.827z"  /></svg>