<?xml version="1.0" standalone="no"?><!DOCTYPE svg PUBLIC "-//W3C//DTD SVG 1.1//EN" "http://www.w3.org/Graphics/SVG/1.1/DTD/svg11.dtd"><svg class="icon" width="200px" height="200.00px" viewBox="0 0 1024 1024" version="1.1" xmlns="http://www.w3.org/2000/svg"><path fill="#eeb174" d="M906.24 920.576c0 0-207.872 41.984-366.592 84.992-19.456 0-37.888 0-57.344 0-156.672-41.984-365.568-84.992-365.568-84.992-59.392-19.456-112.64-50.176-112.64-112.64L4.096 131.072c0-62.464 50.176-112.64 112.64-112.64 0 0 224.256 47.104 365.568 84.992 18.432 0 36.864 1.024 56.32 0 148.48-39.936 367.616-84.992 367.616-84.992 62.464 0 112.64 50.176 112.64 112.64l0 676.864C1018.88 870.4 963.584 906.24 906.24 920.576zM117.76 74.752c-30.72 0-56.32 25.6-56.32 56.32l0 676.864c0 30.72 24.576 47.104 56.32 56.32 0 0 211.968 43.008 365.568 84.992L483.328 159.744 117.76 74.752zM962.56 131.072c0-30.72-25.6-56.32-56.32-56.32l-365.568 84.992 0 788.48c156.672-40.96 365.568-83.968 365.568-83.968 30.72-9.216 56.32-25.6 56.32-56.32L962.56 131.072z" /></svg>