<?xml version="1.0" standalone="no"?><!DOCTYPE svg PUBLIC "-//W3C//DTD SVG 1.1//EN" "http://www.w3.org/Graphics/SVG/1.1/DTD/svg11.dtd"><svg class="icon" width="200px" height="200.00px" viewBox="0 0 1024 1024" version="1.1" xmlns="http://www.w3.org/2000/svg"><path fill="#eeb174" d="M892.928 135.168c0-28.672-22.528-53.248-53.248-53.248H208.896c-28.672 0-53.248 22.528-53.248 53.248v710.656c0 55.296 30.72 75.776 81.92 75.776h634.88c10.24 0 20.48-8.192 20.48-20.48s-10.24-20.48-20.48-20.48v-81.92c14.336 0 20.48-12.288 20.48-26.624V135.168z m-696.32 12.288c0-14.336 12.288-24.576 20.48-24.576h40.96v634.88h-20.48c-20.48 0-24.576 0-40.96 10.24V147.456zM237.568 880.64c-28.672 0-43.008-12.288-43.008-40.96s14.336-40.96 43.008-40.96h593.92v81.92H237.568z m61.44-757.76h532.48c14.336 0 20.48 4.096 20.48 18.432V757.76H299.008V122.88zM380.928 307.2c0-12.288 8.192-20.48 20.48-20.48h184.32c10.24 0 20.48 8.192 20.48 20.48s-8.192 20.48-20.48 20.48h-184.32c-12.288 0-20.48-8.192-20.48-20.48z m0 122.88c0-12.288 8.192-20.48 20.48-20.48h266.24c12.288 0 20.48 8.192 20.48 20.48s-8.192 20.48-20.48 20.48H401.408c-10.24 0-20.48-8.192-20.48-20.48z" /></svg>