<?xml version="1.0" standalone="no"?><!DOCTYPE svg PUBLIC "-//W3C//DTD SVG 1.1//EN" "http://www.w3.org/Graphics/SVG/1.1/DTD/svg11.dtd"><svg class="icon" width="200px" height="200.00px" viewBox="0 0 1024 1024" version="1.1" xmlns="http://www.w3.org/2000/svg"><path fill="#eeb174" d="M802.133333 55.466667 221.866667 55.466667c-46.933333 0-85.333333 38.4-85.333333 85.333333l0 750.933333c0 46.933333 38.4 85.333333 85.333333 85.333333l584.533333 0c46.933333 0 85.333333-38.4 85.333333-85.333333L891.733333 136.533333C887.466667 89.6 849.066667 55.466667 802.133333 55.466667zM635.733333 93.866667l85.333333 0 0 145.066667-42.666667-42.666667-42.666667 42.666667L635.733333 93.866667zM302.933333 930.133333l-85.333333 0c-21.333333 0-42.666667-17.066667-42.666667-42.666667L174.933333 136.533333c0-21.333333 17.066667-42.666667 42.666667-42.666667l85.333333 0L302.933333 930.133333zM844.8 887.466667c0 21.333333-17.066667 42.666667-42.666667 42.666667L345.6 930.133333 345.6 93.866667 597.333333 93.866667l0 251.733333 85.333333-85.333333 85.333333 85.333333L768 93.866667l42.666667 0c21.333333 0 42.666667 17.066667 42.666667 42.666667L853.333333 887.466667z" /></svg>